<svg xmlns="http://www.w3.org/2000/svg" viewBox="0 0 5.2916666 5.2916669"><path d="M5.113 2.646a2.468 2.468 0 0 1-2.467 2.467A2.468 2.468 0 0 1 .178 2.646 2.468 2.468 0 0 1 2.646.178a2.468 2.468 0 0 1 2.467 2.468z" fill="#ffda29" stroke="#4f4f4f" stroke-width=".239085"/><g style="line-height:1.25"><path d="M2.933 4.104q0 .018-.01.032-.008.014-.031.023-.024.007-.063.012-.037.007-.094.007-.056 0-.095-.007-.039-.005-.062-.012-.023-.009-.032-.023-.01-.014-.01-.032V1.24q0-.019.01-.033.011-.014.034-.02.026-.01.062-.014.04-.007.093-.007.057 0 .094.007.04.005.063.014.023.007.032.02.01.014.01.033z" style="-inkscape-font-specification:Calibri" font-size="4.723" font-family="Calibri" font-weight="400" letter-spacing="0" word-spacing="0" fill="#4f4f4f" stroke-width=".253"/></g></svg>