<svg xmlns="http://www.w3.org/2000/svg" viewBox="0 0 5.2916666 5.2916669"><path d="M5.225 2.645a2.58 2.58 0 0 1-2.58 2.58 2.58 2.58 0 0 1-2.58-2.58 2.58 2.58 0 0 1 2.58-2.58 2.58 2.58 0 0 1 2.58 2.58z" fill="#4f4f4f"/><g style="line-height:1.25"><path d="M3.918 2.026q0 .234-.077.422-.077.188-.222.32-.142.133-.352.206-.207.072-.496.072h-.355V4.17q0 .02-.012.034-.01.014-.034.024-.022.007-.063.012-.038.007-.098.007-.06 0-.102-.007-.038-.005-.062-.012-.024-.01-.034-.024Q2 4.189 2 4.17V1.29q0-.096.05-.137.052-.04.114-.04h.668q.102 0 .193.01.094.006.22.035.127.027.258.104.132.075.224.186.092.11.14.258.05.144.05.32zm-.436.034q0-.19-.072-.319-.07-.127-.176-.19-.104-.063-.217-.08-.111-.017-.218-.017h-.383v1.252h.374q.188 0 .31-.048.126-.048.21-.133.085-.087.129-.205.043-.12.043-.26z" style="-inkscape-font-specification:Calibri" font-size="4.939" font-family="Calibri" fill="#ffda29" font-weight="400" letter-spacing="0" word-spacing="0" stroke-width=".265"/></g></svg>