<svg xmlns="http://www.w3.org/2000/svg" id="pg_number" width="60" height="15" viewBox="0 0 21.166666 5.2916668"><path d="M.897 1.98l4.32-.04c.332-.003.664-.115.938-.391l.22-.22.027 2.95-.28-.27a1.456 1.456 0 0 0-.944-.374l-4.32.04c-.333.003-.556-.214-.56-.542l-.005-.546c.052-.383.271-.604.604-.607zM7.638.278L19.27.171s1.165.153 1.132 2.503c-.033 2.35-1.084 2.524-1.084 2.524L7.685 5.196c-.332.003-.556-.213-.503-.487L7.145.775C7.197.5 7.417.28 7.638.278z" fill="#4f4f4f"/><g style="line-height:1.25" font-weight="700" font-size="4.939" font-family="calibri" letter-spacing="0" word-spacing="0" stroke-width=".265" fill="#ffda29"><path d="M11.347 3.908q0 .07-.007.12-.005.05-.017.08-.012.032-.031.046-.02.012-.044.012H9.454q-.053 0-.092-.01-.038-.009-.062-.035-.024-.03-.036-.082-.01-.053-.01-.138 0-.08.007-.135.007-.058.027-.101.019-.046.048-.087.031-.043.08-.094l.54-.579q.161-.169.26-.306.099-.14.154-.253.056-.116.075-.213.022-.096.022-.183 0-.08-.027-.15-.024-.072-.074-.125-.049-.053-.123-.082-.075-.031-.176-.031-.143 0-.254.036-.108.036-.193.082-.082.043-.137.082-.055.036-.087.036-.022 0-.038-.014-.015-.015-.025-.048-.01-.034-.016-.09-.005-.058-.005-.14 0-.055.002-.091.005-.039.012-.065.007-.03.02-.049.012-.021.04-.05.032-.03.111-.073.082-.045.2-.086.119-.044.261-.073.142-.029.297-.029.243 0 .424.063.183.06.304.171.12.109.178.26.06.15.06.324 0 .152-.028.299-.03.147-.12.318-.092.169-.259.376-.166.205-.441.478l-.364.374h1.23q.024 0 .043.014.022.015.036.046.015.029.022.08.007.048.007.115zM13.276 4.791q-.012.031-.03.05-.02.02-.056.032-.034.012-.087.017-.05.007-.13.007-.1 0-.162-.01-.063-.01-.096-.029-.032-.019-.037-.05-.004-.03.01-.07L14.13.688q.01-.03.029-.05.02-.021.053-.034.034-.012.087-.016.055-.008.133-.008.1 0 .161.01.063.01.094.029.031.02.036.05.005.03-.007.07zM18.264 3.125q0 .236-.073.438-.072.2-.212.348-.14.144-.345.229-.205.082-.473.082-.217 0-.378-.05-.162-.049-.28-.14-.118-.095-.193-.227-.075-.133-.12-.3-.044-.166-.06-.361-.018-.195-.018-.415 0-.183.017-.383.02-.2.07-.393.053-.193.147-.367.094-.176.241-.306.15-.133.36-.21.212-.077.501-.077.092 0 .184.012.094.01.173.026.08.017.135.039.056.022.073.039.019.014.029.033.01.02.014.044.007.021.01.055.002.034.002.082 0 .075-.005.126-.002.048-.012.077-.01.026-.026.038-.017.012-.041.012-.03 0-.075-.014-.046-.017-.11-.036-.066-.02-.155-.034-.087-.015-.203-.015-.195 0-.33.073-.135.072-.22.198-.084.123-.123.287-.038.164-.04.347.052-.034.12-.068.07-.033.15-.058.081-.024.175-.038.095-.017.2-.017.237 0 .406.065.169.065.275.186.108.12.159.292.05.17.05.38zm-.623.06q0-.123-.021-.215-.022-.094-.07-.157-.049-.065-.128-.096-.08-.034-.193-.034-.068 0-.133.012t-.127.034q-.063.022-.121.053-.058.03-.109.063 0 .258.03.432.028.17.084.272.058.101.142.145.087.04.2.04.111 0 .193-.04.085-.041.14-.116.055-.075.084-.174.03-.101.03-.22z" style="-inkscape-font-specification:'calibri Bold'"/></g></svg>