<svg xmlns="http://www.w3.org/2000/svg" id="pg_number" width="60" height="15" viewBox="0 0 21.166666 5.2916668"><path d="M.897 1.98l4.32-.04c.332-.003.664-.115.938-.391l.22-.22.027 2.95-.28-.27a1.456 1.456 0 0 0-.944-.374l-4.32.04c-.333.003-.556-.214-.56-.542l-.005-.546c.052-.383.271-.604.604-.607zM7.638.278L19.27.171s1.165.153 1.132 2.503c-.033 2.35-1.084 2.524-1.084 2.524L7.685 5.196c-.332.003-.556-.213-.503-.487L7.145.775C7.197.5 7.417.28 7.638.278z" fill="#4f4f4f"/><g style="line-height:1.25" font-weight="700" font-size="4.939" font-family="calibri" letter-spacing="0" word-spacing="0" stroke-width=".265" fill="#ffda29"><path d="M11.333 3.252q0 .234-.09.415-.089.181-.248.304-.16.123-.381.188-.222.063-.485.063-.159 0-.299-.024-.14-.022-.248-.056-.106-.033-.176-.07-.07-.036-.092-.055-.021-.02-.034-.044-.01-.024-.019-.055-.007-.034-.012-.082-.002-.05-.002-.12 0-.116.019-.16.02-.046.058-.046.024 0 .082.034.06.032.152.07.091.036.214.07.123.031.28.031.133 0 .234-.03.101-.032.171-.088.073-.058.106-.137.037-.082.037-.181 0-.109-.044-.195-.04-.087-.125-.148-.082-.062-.21-.096-.125-.034-.297-.034h-.27q-.031 0-.053-.007-.022-.01-.036-.036-.014-.027-.022-.072-.005-.049-.005-.123 0-.07.005-.114.008-.046.02-.07.014-.024.033-.034.022-.01.051-.01h.273q.14 0 .248-.03.108-.034.18-.095.076-.06.114-.144.039-.087.039-.19 0-.08-.027-.15-.026-.073-.08-.123-.05-.053-.132-.082-.082-.032-.193-.032-.125 0-.236.039-.111.036-.2.082-.087.043-.15.082-.06.039-.09.039-.019 0-.033-.008-.014-.01-.024-.033-.01-.025-.015-.07-.004-.046-.004-.119 0-.06.002-.098.002-.041.01-.068.007-.026.017-.046.012-.02.036-.04.024-.025.099-.07.074-.047.188-.09.113-.043.26-.072.15-.032.323-.032.227 0 .4.053.177.053.295.155.12.099.18.246.063.144.063.328 0 .142-.036.265-.036.123-.106.22-.07.096-.176.163-.104.068-.241.102v.007q.164.02.294.084.13.063.22.16.091.096.14.219.048.12.048.26zM13.276 4.791q-.012.031-.03.05-.02.02-.056.032-.034.012-.087.017-.05.007-.13.007-.1 0-.162-.01-.063-.01-.096-.029-.032-.019-.037-.05-.004-.03.01-.07L14.13.688q.01-.03.029-.05.02-.021.053-.034.034-.012.087-.016.055-.008.133-.008.1 0 .161.01.063.01.094.029.031.02.036.05.005.03-.007.07zM18.264 3.125q0 .236-.073.438-.072.2-.212.348-.14.144-.345.229-.205.082-.473.082-.217 0-.378-.05-.162-.049-.28-.14-.118-.095-.193-.227-.075-.133-.12-.3-.044-.166-.06-.361-.018-.195-.018-.415 0-.183.017-.383.02-.2.07-.393.053-.193.147-.367.094-.176.241-.306.15-.133.36-.21.212-.077.501-.077.092 0 .184.012.094.01.173.026.08.017.135.039.056.022.073.039.019.014.029.033.01.02.014.044.007.021.01.055.002.034.002.082 0 .075-.005.126-.002.048-.012.077-.01.026-.026.038-.017.012-.041.012-.03 0-.075-.014-.046-.017-.11-.036-.066-.02-.155-.034-.087-.015-.203-.015-.195 0-.33.073-.135.072-.22.198-.084.123-.123.287-.038.164-.04.347.052-.034.12-.068.07-.033.15-.058.081-.024.175-.038.095-.017.2-.017.237 0 .406.065.169.065.275.186.108.12.159.292.05.17.05.38zm-.623.06q0-.123-.021-.215-.022-.094-.07-.157-.049-.065-.128-.096-.08-.034-.193-.034-.068 0-.133.012t-.127.034q-.063.022-.121.053-.058.03-.109.063 0 .258.03.432.028.17.084.272.058.101.142.145.087.04.2.04.111 0 .193-.04.085-.041.14-.116.055-.075.084-.174.03-.101.03-.22z" style="-inkscape-font-specification:'calibri Bold'"/></g></svg>