<svg xmlns="http://www.w3.org/2000/svg" id="pg_number" width="60" height="15" viewBox="0 0 21.166666 5.2916668"><path d="M.897 1.98l4.32-.04c.332-.003.664-.115.938-.391l.22-.22.027 2.95-.28-.27a1.456 1.456 0 0 0-.944-.374l-4.32.04c-.333.003-.556-.214-.56-.542l-.005-.546c.052-.383.271-.604.604-.607zM7.638.278L19.27.171s1.165.153 1.132 2.503c-.033 2.35-1.084 2.524-1.084 2.524L7.685 5.196c-.332.003-.556-.213-.503-.487L7.145.775C7.197.5 7.417.28 7.638.278z" fill="#4f4f4f"/><g style="line-height:1.25" font-weight="700" font-size="4.939" font-family="calibri" letter-spacing="0" word-spacing="0" stroke-width=".265" fill="#ffda29"><path d="M11.444 3.27q0 .122-.027.187-.024.063-.067.063h-.278v.564q0 .025-.014.044-.015.017-.05.029-.037.012-.095.017-.058.007-.15.007-.086 0-.147-.007-.057-.005-.094-.017-.033-.012-.048-.03-.012-.018-.012-.043V3.52H9.268q-.033 0-.06-.007-.026-.01-.046-.039-.017-.031-.026-.087-.007-.057-.007-.151 0-.078.002-.133.005-.058.012-.104.01-.046.024-.087.017-.04.041-.086l.97-1.71q.012-.022.04-.036.03-.017.08-.027.053-.012.133-.017.08-.005.193-.005.123 0 .21.008.086.004.137.019.053.012.077.031.024.02.024.046v1.879h.278q.038 0 .065.06.029.058.029.195zm-.982-1.691h-.005l-.822 1.435h.827zM13.276 4.791q-.012.031-.03.05-.02.02-.056.032-.034.012-.087.017-.05.007-.13.007-.1 0-.162-.01-.063-.01-.096-.029-.032-.019-.037-.05-.004-.03.01-.07L14.13.688q.01-.03.029-.05.02-.021.053-.034.034-.012.087-.016.055-.008.133-.008.1 0 .161.01.063.01.094.029.031.02.036.05.005.03-.007.07zM18.264 3.125q0 .236-.073.438-.072.2-.212.348-.14.144-.345.229-.205.082-.473.082-.217 0-.378-.05-.162-.049-.28-.14-.118-.095-.193-.227-.075-.133-.12-.3-.044-.166-.06-.361-.018-.195-.018-.415 0-.183.017-.383.02-.2.07-.393.053-.193.147-.367.094-.176.241-.306.15-.133.36-.21.212-.077.501-.077.092 0 .184.012.094.01.173.026.08.017.135.039.056.022.073.039.019.014.029.033.01.02.014.044.007.021.01.055.002.034.002.082 0 .075-.005.126-.002.048-.012.077-.01.026-.026.038-.017.012-.041.012-.03 0-.075-.014-.046-.017-.11-.036-.066-.02-.155-.034-.087-.015-.203-.015-.195 0-.33.073-.135.072-.22.198-.084.123-.123.287-.038.164-.04.347.052-.034.12-.068.07-.033.15-.058.081-.024.175-.038.095-.017.2-.017.237 0 .406.065.169.065.275.186.108.12.159.292.05.17.05.38zm-.623.06q0-.123-.021-.215-.022-.094-.07-.157-.049-.065-.128-.096-.08-.034-.193-.034-.068 0-.133.012t-.127.034q-.063.022-.121.053-.058.03-.109.063 0 .258.03.432.028.17.084.272.058.101.142.145.087.04.2.04.111 0 .193-.04.085-.041.14-.116.055-.075.084-.174.03-.101.03-.22z" style="-inkscape-font-specification:'calibri Bold'"/></g></svg>