<svg xmlns="http://www.w3.org/2000/svg" id="pg_number" width="60" height="15" viewBox="0 0 21.166666 5.2916668"><path d="M.897 1.98l4.32-.04c.332-.003.664-.115.938-.391l.22-.22.027 2.95-.28-.27a1.456 1.456 0 0 0-.944-.374l-4.32.04c-.333.003-.556-.214-.56-.542l-.005-.546c.052-.383.271-.604.604-.607zM7.638.278L19.27.171s1.165.153 1.132 2.503c-.033 2.35-1.084 2.524-1.084 2.524L7.685 5.196c-.332.003-.556-.213-.503-.487L7.145.775C7.197.5 7.417.28 7.638.278z" fill="#4f4f4f"/><g style="line-height:1.25" font-weight="700" font-size="4.939" font-family="calibri" letter-spacing="0" word-spacing="0" stroke-width=".265" fill="#ffda29"><path d="M11.318 3.154q0 .253-.089.453-.087.198-.248.335-.16.135-.386.207-.225.073-.5.073-.144 0-.274-.02-.13-.016-.234-.043-.104-.029-.172-.055-.065-.03-.086-.046-.02-.02-.03-.041-.009-.022-.016-.05-.005-.032-.007-.078-.003-.046-.003-.108 0-.068.005-.114.005-.048.015-.077.012-.029.026-.041.015-.012.034-.012.024 0 .072.029.05.026.13.06.082.034.198.063.116.026.277.026.14 0 .254-.029.115-.028.195-.091.08-.065.123-.162.043-.096.043-.231 0-.116-.036-.205-.036-.092-.113-.155-.077-.062-.2-.094-.123-.031-.3-.031-.14 0-.255.014-.113.015-.215.015-.07 0-.1-.034-.03-.036-.03-.13V1.227q0-.097.036-.138.039-.043.121-.043h1.478q.022 0 .041.014.02.015.032.046.014.031.019.085.007.05.007.122 0 .145-.026.21-.025.065-.073.065h-1.11v.668q.085-.01.167-.012.085-.002.176-.002.254 0 .449.06.198.058.33.174.135.113.205.284.07.17.07.394zM13.276 4.791q-.012.031-.03.05-.02.02-.056.032-.034.012-.087.017-.05.007-.13.007-.1 0-.162-.01-.063-.01-.096-.029-.032-.019-.037-.05-.004-.03.01-.07L14.13.688q.01-.03.029-.05.02-.021.053-.034.034-.012.087-.016.055-.008.133-.008.1 0 .161.01.063.01.094.029.031.02.036.05.005.03-.007.07zM18.264 3.125q0 .236-.073.438-.072.2-.212.348-.14.144-.345.229-.205.082-.473.082-.217 0-.378-.05-.162-.049-.28-.14-.118-.095-.193-.227-.075-.133-.12-.3-.044-.166-.06-.361-.018-.195-.018-.415 0-.183.017-.383.02-.2.07-.393.053-.193.147-.367.094-.176.241-.306.15-.133.36-.21.212-.077.501-.077.092 0 .184.012.094.01.173.026.08.017.135.039.056.022.073.039.019.014.029.033.01.02.014.044.007.021.01.055.002.034.002.082 0 .075-.005.126-.002.048-.012.077-.01.026-.026.038-.017.012-.041.012-.03 0-.075-.014-.046-.017-.11-.036-.066-.02-.155-.034-.087-.015-.203-.015-.195 0-.33.073-.135.072-.22.198-.084.123-.123.287-.038.164-.04.347.052-.034.12-.068.07-.033.15-.058.081-.024.175-.038.095-.017.2-.017.237 0 .406.065.169.065.275.186.108.12.159.292.05.17.05.38zm-.623.06q0-.123-.021-.215-.022-.094-.07-.157-.049-.065-.128-.096-.08-.034-.193-.034-.068 0-.133.012t-.127.034q-.063.022-.121.053-.058.03-.109.063 0 .258.03.432.028.17.084.272.058.101.142.145.087.04.2.04.111 0 .193-.04.085-.041.14-.116.055-.075.084-.174.03-.101.03-.22z" style="-inkscape-font-specification:'calibri Bold'"/></g></svg>