<?xml version="1.0" encoding="UTF-8" standalone="no"?>
<svg
   xmlns:dc="http://purl.org/dc/elements/1.1/"
   xmlns:cc="http://creativecommons.org/ns#"
   xmlns:rdf="http://www.w3.org/1999/02/22-rdf-syntax-ns#"
   xmlns:svg="http://www.w3.org/2000/svg"
   xmlns="http://www.w3.org/2000/svg"
   xmlns:sodipodi="http://sodipodi.sourceforge.net/DTD/sodipodi-0.dtd"
   xmlns:inkscape="http://www.inkscape.org/namespaces/inkscape"
   id="Layer_1"
   data-name="Layer 1"
   viewBox="0 0 1890 597.99999"
   version="1.1"
   sodipodi:docname="wion logo for web.svg"
   width="1890"
   height="598"
   inkscape:version="0.92.1 r15371">
  <metadata
     id="metadata29">
    <rdf:RDF>
      <cc:Work
         rdf:about="">
        <dc:format>image/svg+xml</dc:format>
        <dc:type
           rdf:resource="http://purl.org/dc/dcmitype/StillImage" />
        <dc:title>wion logo for web</dc:title>
      </cc:Work>
    </rdf:RDF>
  </metadata>
  <sodipodi:namedview
     pagecolor="#ffffff"
     bordercolor="#666666"
     borderopacity="1"
     objecttolerance="10"
     gridtolerance="10"
     guidetolerance="10"
     inkscape:pageopacity="0"
     inkscape:pageshadow="2"
     inkscape:window-width="1366"
     inkscape:window-height="715"
     id="namedview27"
     showgrid="false"
     inkscape:zoom="0.10601641"
     inkscape:cx="137.70042"
     inkscape:cy="39.7624"
     inkscape:window-x="-8"
     inkscape:window-y="22"
     inkscape:window-maximized="1"
     inkscape:current-layer="Layer_1" />
  <defs
     id="defs4">
    <style
       id="style2">.cls-1,.cls-4{fill:#ffda29;}.cls-1,.cls-2{fill-rule:evenodd;}.cls-2,.cls-3{fill:#4f4f4f;}</style>
  </defs>
  <title
     id="title6">wion logo for web</title>
  <path
     class="cls-1"
     d="m 389.08,23.44999 a 198.63,198.63 0 0 1 18.79,6.75 292.5,292.5 0 0 1 177.34,213.33 270.76,270.76 0 0 1 4.31,28.81 q 0.85,9.14 1.25,18.3 0.35,7.86 0.19,15.7 -0.26,14.17 -1.85,28.27 a 292.5,292.5 0 0 1 -195.82,243.62 8.5,8.5 0 0 1 -2.33,0.68 7.68,7.68 0 0 0 -2.51,-0.76 c -32.17,-8 -63.62,-18.14 -93.88,-31.82 a 339.11,339.11 0 0 1 -56.6,-31.88 c -12.76,-9.06 -24.76,-19.07 -35.17,-30.92 -4.69,-5.34 -8.82,-11 -11.59,-17.65 -4.73,-11.35 -7.1,-23 -6,-35.39 a 70.07,70.07 0 0 1 6.33,-23.49 c 1.58,-3.39 3.17,-6.85 5.77,-9.58 8.67,-9.11 17.09,-18.47 26.18,-27.18 11.89,-11.39 23.11,-23.44 34.29,-35.53 a 30.88,30.88 0 0 0 4,-5.14 50.27,50.27 0 0 0 7.56,-26.31 55.78,55.78 0 0 0 -5.46,-23.23 c -5.55,-12 -13.79,-22.09 -23.3,-31.19 -5.22,-5 -11.12,-9.17 -16.49,-14 -9,-8.05 -17.53,-16.51 -24.73,-26.23 -5.41,-7.31 -10,-15 -11.87,-24.12 -1.87,-9.12 -2.86,-18.53 -1.66,-27.93 a 74.4,74.4 0 0 1 12.85,-32.92 c 7.52,-11 17.07,-19.87 27.91,-27.47 5.19,-3.64 10.81,-6.54 16.3,-9.66 a 763,763 0 0 1 73,-36.77 560,560 0 0 1 68.94,-25 18.29,18.29 0 0 0 4.25,-1.29 z m 75.8,278.08 q 0,-20.19 0,-40.39 c 0,-4.69 0.08,-9.38 0,-14.07 a 16.67,16.67 0 0 0 -33.32,0.67 q 0,53.85 0,107.7 a 17.91,17.91 0 0 0 0.29,3 16.56,16.56 0 0 0 23.74,12.09 16.08,16.08 0 0 0 9.27,-15.15 c 0.07,-17.91 0.02,-35.85 0.02,-53.85 z"
     id="path8"
     inkscape:connector-curvature="0"
     style="fill:#ffda29;fill-rule:evenodd" />
  <path
     class="cls-2"
     d="m 389.08,23.44999 a 18.29,18.29 0 0 1 -4.24,1.35 560,560 0 0 0 -68.94,25 763,763 0 0 0 -73,36.77 c -5.5,3.12 -11.12,6 -16.3,9.66 -10.84,7.6 -20.39,16.5 -27.91,27.47 a 74.4,74.4 0 0 0 -12.85,32.92 c -1.21,9.4 -0.26,18.67 1.66,27.93 1.92,9.26 6.46,16.81 11.87,24.12 7.2,9.72 15.75,18.18 24.73,26.23 5.37,4.81 11.27,9 16.49,14 9.51,9.1 17.74,19.14 23.3,31.19 a 55.78,55.78 0 0 1 5.46,23.23 50.27,50.27 0 0 1 -7.56,26.31 30.88,30.88 0 0 1 -4,5.14 c -11.17,12.09 -22.4,24.13 -34.29,35.53 -9.09,8.72 -17.51,18.07 -26.18,27.18 -2.6,2.73 -4.19,6.19 -5.77,9.58 a 70.07,70.07 0 0 0 -6.34,23.47 c -1.12,12.35 1.26,24 6,35.39 2.76,6.63 6.9,12.31 11.59,17.65 10.41,11.81 22.41,21.82 35.17,30.89 a 339.11,339.11 0 0 0 56.6,31.88 c 30.25,13.68 61.71,23.8 93.88,31.82 a 7.68,7.68 0 0 1 2.51,0.76 c -4.24,1.68 -8.63,2.87 -13,4.11 a 288.29,288.29 0 0 1 -40.89,8.5 269.8,269.8 0 0 1 -27,2.28 c -3.26,0.11 -6.52,0.22 -9.79,0.24 a 292.52,292.52 0 0 1 -270.65,-177.34 288.57,288.57 0 0 1 -18.42,-60.3 292.51,292.51 0 0 1 -4.9,-67.79 292.4,292.4 0 0 1 69.68,-177 292.29,292.29 0 0 1 200.07,-101.79 300.15,300.15 0 0 1 35.48,-0.56 286.13,286.13 0 0 1 60.18,9 c 5.2,1.35 10.35,2.85 15.47,4.46 0.64,0.2 1.26,0.48 1.89,0.72 z m -200.54,278.2 a 71.56,71.56 0 1 0 -72.33,71.54 71.47,71.47 0 0 0 72.33,-71.54 z"
     id="path10"
     inkscape:connector-curvature="0"
     style="fill:#4f4f4f;fill-rule:evenodd" />
  <path
     class="cls-2"
     d="m 464.88,301.52999 c 0,17.95 0,35.9 0,53.85 a 16.08,16.08 0 0 1 -9.29,15.15 16.56,16.56 0 0 1 -23.77,-12 17.91,17.91 0 0 1 -0.29,-3 q 0,-53.85 0,-107.7 a 16.67,16.67 0 0 1 33.32,-0.67 c 0.1,4.69 0,9.38 0,14.07 q 0.04,20.15 0.03,40.3 z"
     id="path12"
     inkscape:connector-curvature="0"
     style="fill:#4f4f4f;fill-rule:evenodd" />
  <path
     class="cls-1"
     d="m 188.54,301.64999 a 71.56,71.56 0 1 1 -71,-71.6 71.57,71.57 0 0 1 71,71.6 z"
     id="path14"
     inkscape:connector-curvature="0"
     style="fill:#ffda29;fill-rule:evenodd" />
  <path
     class="cls-3"
     d="m 1602.76,468.78999 v -334.41 c 0,0 224.74,219.8 230.82,227.43 v -227.43 h 46.63 v 334.68 c 0,0 -226.51,-221.53 -231,-227.86 l -0.1,227.58 h -46.31 z"
     id="path16"
     inkscape:connector-curvature="0"
     style="fill:#4f4f4f" />
  <circle
     class="cls-4"
     cx="1381.98"
     cy="300.87"
     r="96.68"
     id="circle18"
     style="fill:#ffda29" />
  <path
     class="cls-3"
     d="m 1557.21,301.52999 a 161,161 0 0 1 -50.58,118.17 177.09,177.09 0 0 1 -56.33,36.34 174.69,174.69 0 0 1 -65.83,12.62 177,177 0 0 1 -66.6,-12.73 171.8,171.8 0 0 1 -56,-36.23 165.25,165.25 0 0 1 -37.55,-182.59 163.81,163.81 0 0 1 37.55,-54.19 171.58,171.58 0 0 1 56.11,-36.13 183.51,183.51 0 0 1 132.65,0 171.94,171.94 0 0 1 56,36.13 167.38,167.38 0 0 1 37.58,54.5 162,162 0 0 1 13,64.11 z m -54.78,0 a 119.15,119.15 0 0 0 -34.68,-84.65 114,114 0 0 0 -37.88,-25.79 116.26,116.26 0 0 0 -45.4,-9 117.44,117.44 0 0 0 -45.39,8.92 119.53,119.53 0 0 0 -64,64.42 121.47,121.47 0 0 0 -8.87,46.1 119.27,119.27 0 0 0 8.84,45.7 118,118 0 0 0 25.63,38.52 117.95,117.95 0 0 0 128.67,25.9 119.08,119.08 0 0 0 73.05,-110.12 z"
     id="path20"
     inkscape:connector-curvature="0"
     style="fill:#4f4f4f" />
  <path
     class="cls-3"
     d="m 1111.05,468.64999 v -334.27 h 50.19 v 334.27 z"
     id="path22"
     inkscape:connector-curvature="0"
     style="fill:#4f4f4f" />
  <path
     class="cls-3"
     d="m 642.03,134.37999 h 49.83 c 0,0 78.05,210.75 80,217.53 4.95,-16.39 79.3,-218 79.3,-218 0,0 79.87,210.07 82.27,218.4 1.41,-6.36 77.17,-218 77.17,-218 h 50.25 l -124,334.37 c 0,0 -84.11,-214 -86.09,-220.53 -2.41,8.34 -84.18,220.53 -84.18,220.53 z"
     id="path24"
     inkscape:connector-curvature="0"
     style="fill:#4f4f4f" />
</svg>
